<svg aria-hidden="true" style="position: absolute; width: 0; height: 0; overflow: hidden;" version="1.1" xmlns="http://www.w3.org/2000/svg" xmlns:xlink="http://www.w3.org/1999/xlink">
<defs>
<symbol id="icon-appstore" viewBox="0 0 28 32">
<path d="M0.032 15.968q-0.032 0.576-0.032 1.152 0 2.176 0.64 4.608 0.832 3.104 2.656 5.888 2.848 4.352 5.504 4.384 0.96 0 2.496-0.672t3.040-0.672h0.128q1.472 0 2.912 0.64 1.504 0.704 2.432 0.704 1.568-0.032 2.912-1.312t2.72-3.328q0.992-1.536 2.080-3.872-1.6-0.608-2.72-1.824t-1.536-2.72q-0.32-1.12-0.288-2.24v-0.768q0.128-1.536 1.088-2.944t2.496-2.24q-1.216-1.536-2.848-2.4t-3.296-0.864q-1.536 0-3.36 0.672t-2.752 0.704q-0.96 0-2.88-0.704t-3.264-0.672q-1.856 0-3.648 1.056t-3.072 2.976q-1.184 1.792-1.408 4.448zM13.312 7.712q-0.096-0.48-0.096-0.96 0-2.080 1.696-4.128 0.864-1.056 2.24-1.792t2.624-0.832q0.064 0.48 0.064 0.96 0 2.208-1.6 4.224-0.896 1.152-2.24 1.856-1.312 0.704-2.56 0.672h-0.128z"></path>
</symbol>
<symbol id="icon-cloud-sun" viewBox="0 0 32 32">
<path d="M0 23.008q0-2.816 1.984-4.832t4.768-2.176q-0.768-1.44-0.768-2.976 0-2.88 2.080-4.96t4.928-2.048q2.848 0 4.896 1.984 2.016 1.984 2.112 4.896 2.4 1.024 4 3.168 0.416-0.064 0.992-0.064 2.88 0 4.928 2.080t2.048 4.928-2.048 4.928-4.928 2.080q-1.344 0-2.496-0.448-2.816 2.432-6.496 2.432t-6.496-2.432q-1.184 0.448-2.496 0.448-2.88 0-4.96-2.080t-2.048-4.928zM0 13.024q0-0.448 0.288-0.736t0.704-0.288h2.016q0.416 0 0.704 0.288t0.288 0.736-0.288 0.704-0.704 0.288h-2.016q-0.416 0-0.704-0.288t-0.288-0.704zM2.016 23.008q0 2.048 1.44 3.52t3.552 1.472q1.536 0 2.848-0.928 2.464 2.944 6.144 2.944t6.112-2.944q1.312 0.928 2.88 0.928 2.048 0 3.52-1.472t1.472-3.52-1.472-3.52-3.52-1.472q-0.992 0-1.888 0.352-1.184-2.24-3.424-3.424-0.896-0.512-1.888-0.672-0.896-0.256-1.792-0.256-3.68 0-6.144 2.88-0.608 0.736-0.992 1.472-0.032 0-0.48-0.096-0.736-0.256-1.376-0.256-2.080 0-3.552 1.472t-1.44 3.52zM3.808 5.248q-0.352-0.352-0.352-0.704t0.352-0.704 0.704-0.352 0.736 0.352l1.376 1.408q0.352 0.352 0.352 0.704t-0.352 0.672-0.704 0.352l-0.672-0.352zM8 13.024q0 1.184 0.608 2.304 2.944-3.328 7.392-3.328 0.864 0 1.92 0.192-0.288-1.792-1.664-3.008t-3.264-1.184q-2.048 0-3.52 1.472t-1.472 3.552zM12 3.008v-1.984q0-0.448 0.288-0.736t0.704-0.256 0.736 0.256 0.256 0.736v1.984q0 0.448-0.256 0.736t-0.736 0.256-0.704-0.256-0.288-0.736zM19.36 6.624q-0.352-0.32-0.352-0.672t0.352-0.704l1.376-1.408q0.384-0.352 0.736-0.352t0.704 0.352 0.352 0.704-0.352 0.704l-1.44 1.376q-0.352 0.352-0.672 0.352zM21.984 13.024q0-0.448 0.288-0.736t0.704-0.288h2.016q0.448 0 0.704 0.288t0.288 0.736-0.288 0.704-0.704 0.288h-2.016q-0.416 0-0.704-0.288t-0.288-0.704z"></path>
</symbol>
<symbol id="icon-tire" viewBox="0 0 32 32">
<path d="M16 0c-8.837 0-16 7.163-16 16s7.163 16 16 16c8.837 0 16-7.163 16-16v0c-0.018-8.829-7.171-15.982-15.998-16h-0.002zM16 27.36c-6.274 0-11.36-5.086-11.36-11.36s5.086-11.36 11.36-11.36c6.274 0 11.36 5.086 11.36 11.36v0c0 6.274-5.086 11.36-11.36 11.36v0zM16 6.112c-5.461 0-9.888 4.427-9.888 9.888s4.427 9.888 9.888 9.888c5.461 0 9.888-4.427 9.888-9.888v0c-0.018-5.454-4.434-9.87-9.886-9.888h-0.002zM24.64 15.36h-4.8c-0.113-0.623-0.36-1.173-0.711-1.642l0.007 0.010 3.392-3.392c1.186 1.347 1.96 3.083 2.11 4.994l0.002 0.030zM16.64 7.36c1.941 0.152 3.677 0.926 5.034 2.12l-0.009-0.008-3.392 3.392c-0.467-0.348-1.030-0.596-1.641-0.701l-0.023-0.003v-4.8zM15.392 7.36v4.8c-0.632 0.098-1.195 0.335-1.676 0.68l0.012-0.008-3.392-3.392c1.358-1.181 3.107-1.945 5.029-2.079l0.027-0.002zM9.472 10.336l3.392 3.392c-0.334 0.46-0.57 1.011-0.669 1.61l-0.003 0.022h-4.832c0.152-1.941 0.926-3.677 2.12-5.034l-0.008 0.009zM7.392 16.608h4.768c0.107 0.634 0.355 1.197 0.711 1.674l-0.007-0.010-3.392 3.392c-1.192-1.355-1.968-3.103-2.11-5.028l-0.002-0.028zM15.392 24.64c-1.953-0.144-3.701-0.92-5.066-2.12l0.010 0.008 3.392-3.392c0.469 0.337 1.032 0.574 1.642 0.669l0.022 0.003zM15.392 18.528v0.032c-0.291-0.071-0.547-0.181-0.779-0.326l0.011 0.006h0.032c-0.37-0.225-0.671-0.526-0.889-0.884l-0.007-0.012v0.032c-0.139-0.221-0.249-0.477-0.316-0.75l-0.004-0.018h0.032c-0.049-0.187-0.077-0.402-0.077-0.624s0.028-0.437 0.081-0.642l-0.004 0.018h-0.032c0.075-0.279 0.184-0.524 0.326-0.747l-0.006 0.011c0.22-0.354 0.51-0.644 0.853-0.858l0.011-0.006c0.221-0.139 0.477-0.249 0.75-0.316l0.018-0.004c0.183-0.047 0.392-0.073 0.608-0.073s0.425 0.027 0.626 0.077l-0.018-0.004c0.29 0.060 0.547 0.16 0.781 0.295l-0.013-0.007v0.032c0.354 0.22 0.644 0.51 0.858 0.853l0.006 0.011c0.136 0.212 0.245 0.457 0.316 0.718l0.004 0.018c0.049 0.187 0.077 0.402 0.077 0.624s-0.028 0.437-0.081 0.642l0.004-0.018c-0.075 0.279-0.184 0.524-0.326 0.747l0.006-0.011c-0.216 0.367-0.507 0.668-0.854 0.89l-0.011 0.006c-0.221 0.139-0.477 0.249-0.75 0.316l-0.018 0.004v-0.032c-0.183 0.047-0.392 0.073-0.608 0.073s-0.425-0.027-0.626-0.077l0.018 0.004zM16.64 24.64v-4.832c0.62-0.103 1.172-0.34 1.643-0.68l-0.011 0.008 3.392 3.392c-1.347 1.186-3.083 1.96-4.994 2.11l-0.030 0.002zM22.56 21.664l-3.424-3.424c0.344-0.459 0.591-1.009 0.7-1.608l0.004-0.024h4.8c-0.144 1.953-0.92 3.701-2.12 5.066l0.008-0.010z"></path>
</symbol>
<symbol id="icon-mobile" viewBox="0 0 22 32">
<path d="M0 28.992v-25.984q0-1.248 0.864-2.144t2.144-0.864h16q1.248 0 2.112 0.864t0.896 2.144v25.984q0 1.248-0.896 2.144t-2.112 0.864h-16q-1.248 0-2.144-0.864t-0.864-2.144zM2.016 28.992q0 0.448 0.256 0.736t0.736 0.288h16q0.416 0 0.704-0.288t0.288-0.736v-1.984h-17.984v1.984zM2.016 25.984h17.984v-19.968h-17.984v19.968zM2.016 4.992h17.984v-1.984q0-0.448-0.288-0.736t-0.704-0.256h-16q-0.448 0-0.736 0.256t-0.256 0.736v1.984zM8.992 3.488q0-0.48 0.512-0.48h3.008q0.48 0 0.48 0.48t-0.48 0.512h-3.008q-0.512 0-0.512-0.512zM10.016 28.512q0-0.512 0.48-0.512h0.992q0.512 0 0.512 0.512t-0.512 0.48h-0.992q-0.48 0-0.48-0.48z"></path>
</symbol>
<symbol id="icon-friendfeed" viewBox="0 0 30 32">
<path d="M0 12.256q0.064-1.6 0.48-2.496t0.864-1.088 1.28-0.288q0.576-7.36 8.832-8.128 3.040-0.224 6.56 1.024 2.112-1.152 4.736-1.152 1.056 0 4 0.448 1.952 0.512 2.752 1.312t0.768 2.176l0.096 2.88q-0.096 0.96-0.352 1.536t-0.736 0.896-0.672 0.352-0.864 0.224q0.064 0.064 0.288 0.16t0.32 0.192 0.224 0.416 0.192 0.8v3.552q-0.32 0.896-0.896 1.376t-0.992 0.64-1.184 0.256l-1.376-0.128-0.128 11.808q0 0.448-0.096 0.736t-0.192 0.576-0.288 0.448-0.352 0.256-0.448 0.224-0.416 0.16-0.448 0.128-0.448 0.096h-5.312q-2.368-0.064-2.688-3.072-0.928 3.552-3.424 3.264l-4.576-0.064q-0.608-0.064-1.12-0.192t-0.768-0.384-0.512-0.416-0.32-0.512-0.128-0.544-0.096-0.576-0.064-0.576l-0.064-11.36q-0.8-0.256-1.28-0.608t-0.832-1.44-0.32-2.912zM3.136 10.88l0.064 3.648h2.368l-0.192 14.368h4.896v-14.368l6.368-0.128v14.496l4.864 0.128-0.064-14.624h4.384v-3.264h-4.384q0.064-0.672 0-1.376t0.032-1.344 0.32-1.12 0.8-0.704 1.536-0.128q2.208 0.288 3.136 1.056l0.064-3.616q-2.624-1.152-6.080-0.704-1.312 0.192-2.208 0.704t-1.344 0.992-0.704 1.472-0.32 1.536-0.032 1.76v1.6l-6.144-0.064v-2.432q0.064-0.576 0.16-0.896t0.352-0.768 0.8-0.544 1.44-0.16q0.576-0.064 2.816 0.736l-0.064-3.424q-2.496-0.832-3.808-0.832-0.192 0-0.704 0.064t-0.928 0q-0.736 0.128-1.376 0.32t-1.056 0.416-0.8 0.64-0.64 0.704-0.416 0.832-0.288 0.832-0.192 0.896-0.096 0.832-0.032 0.896l-0.032 0.704 0.064 0.992z"></path>
</symbol>
<symbol id="icon-invoice" viewBox="0 0 24 32">
<path d="M21.76 0h-16.256c-0.002 0-0.003 0-0.005 0-0.273 0-0.52 0.11-0.699 0.288l-4.512 4.512c-0.178 0.179-0.288 0.426-0.288 0.699 0 0.002 0 0.004 0 0.005v-0 24.256c0 1.237 1.003 2.24 2.24 2.24v0h19.52c1.237 0 2.24-1.003 2.24-2.24v0-27.52c0-1.237-1.003-2.24-2.24-2.24v0zM5.92 1.984h0.576v4.256c0 0.141-0.115 0.256-0.256 0.256v0h-4.224v-0.576zM22.016 29.76c0 0.141-0.115 0.256-0.256 0.256v0h-19.52c-0.127-0.016-0.224-0.124-0.224-0.254 0-0.001 0-0.001 0-0.002v0-21.248h4.224c0.010 0 0.021 0 0.032 0 1.237 0 2.24-1.003 2.24-2.24 0-0.011-0-0.023-0-0.034l0 0.002v-4.256h13.248c0.141 0 0.256 0.115 0.256 0.256v0zM16 20c0-2.209-1.791-4-4-4v0c-0.002 0-0.004 0-0.006 0-1.113 0-2.016-0.903-2.016-2.016s0.903-2.016 2.016-2.016c1 0 1.831 0.729 1.989 1.684l0.002 0.012c0.045 0.51 0.47 0.908 0.988 0.908 0.548 0 0.992-0.444 0.992-0.992 0-0.084-0.010-0.165-0.030-0.243l0.001 0.007c-0.254-1.58-1.411-2.834-2.916-3.226l-0.028-0.006v-0.608c0-0.548-0.444-0.992-0.992-0.992s-0.992 0.444-0.992 0.992v0 0.608c-1.737 0.461-2.996 2.020-2.996 3.872 0 2.205 1.784 3.993 3.988 4h0.001c0.002 0 0.004 0 0.006 0 1.113 0 2.016 0.903 2.016 2.016s-0.903 2.016-2.016 2.016c-1 0-1.831-0.729-1.989-1.684l-0.002-0.012c-0.077-0.478-0.486-0.838-0.98-0.838-0.548 0-0.992 0.444-0.992 0.992 0 0.070 0.007 0.139 0.021 0.205l-0.001-0.006c0.266 1.567 1.42 2.806 2.916 3.194l0.028 0.006v0.64c0 0.548 0.444 0.992 0.992 0.992s0.992-0.444 0.992-0.992v0-0.64c1.742-0.457 3.007-2.017 3.008-3.872v-0z"></path>
</symbol>
<symbol id="icon-insurance" viewBox="0 0 26 32">
<path d="M9.088 15.264c-0.169-0.165-0.401-0.267-0.656-0.267-0.519 0-0.939 0.42-0.939 0.939 0 0.263 0.108 0.501 0.283 0.672l2.912 2.912c0.169 0.178 0.408 0.288 0.672 0.288s0.503-0.11 0.672-0.288l0-0 5.824-5.824c0.172-0.172 0.278-0.41 0.278-0.672 0-0.525-0.425-0.95-0.95-0.95-0.262 0-0.5 0.106-0.672 0.278v0l-5.152 5.184zM24.672 4.384c-2.764-0.002-5.165-1.553-6.381-3.833l-0.019-0.039c-0.156-0.306-0.469-0.512-0.83-0.512-0.001 0-0.002 0-0.003 0h-9.248c-0.001 0-0.002 0-0.002 0-0.361 0-0.674 0.206-0.827 0.507l-0.002 0.005c-1.244 2.321-3.652 3.872-6.423 3.872-0.003 0-0.006 0-0.009 0h0c-0.513 0-0.928 0.415-0.928 0.928v0 9.536c0 0.008-0 0.016-0 0.025 0 7.977 5.212 14.737 12.417 17.059l0.127 0.035c0.081 0.026 0.175 0.041 0.272 0.041s0.191-0.015 0.279-0.043l-0.007 0.002c7.332-2.358 12.544-9.117 12.544-17.095 0-0.009 0-0.018-0-0.027v0.001-9.536c0-0 0-0 0-0.001 0-0.513-0.415-0.928-0.928-0.928-0.011 0-0.022 0-0.034 0.001l0.002-0zM23.744 14.848c0 0.015 0 0.034 0 0.052 0 7.028-4.531 12.998-10.831 15.147l-0.113 0.033c-6.396-2.192-10.912-8.153-10.912-15.169 0-0.022 0-0.044 0-0.066v0.003-8.64c2.909-0.309 5.38-1.944 6.825-4.281l0.023-0.039h8.16c1.468 2.376 3.939 4.011 6.808 4.317l0.040 0.003zM16.16 4.096c-0.171-0.215-0.434-0.352-0.728-0.352-0.003 0-0.006 0-0.009 0h-5.248c-0.285 0.008-0.537 0.143-0.703 0.35l-0.001 0.002c-1.309 1.596-3.034 2.805-5.011 3.466l-0.077 0.022c-0.369 0.123-0.632 0.462-0.64 0.863v6.401c-0 0.009-0 0.021-0 0.032 0 5.848 3.549 10.868 8.612 13.021l0.092 0.035c0.108 0.048 0.235 0.076 0.368 0.076s0.26-0.028 0.374-0.078l-0.006 0.002c5.155-2.189 8.704-7.208 8.704-13.056 0-0.011 0-0.023-0-0.034v0.002-6.4c-0.013-0.41-0.29-0.752-0.665-0.862l-0.007-0.002c-2.041-0.688-3.755-1.896-5.040-3.468l-0.015-0.020zM20 14.848c0 0.011 0 0.023 0 0.035 0 4.936-2.918 9.191-7.124 11.133l-0.076 0.031c-4.264-1.98-7.168-6.226-7.168-11.15 0-0.018 0-0.035 0-0.053v0.003-5.728c1.981-0.782 3.654-1.972 4.98-3.474l0.012-0.014h4.384c1.338 1.516 3.011 2.706 4.905 3.458l0.087 0.030z"></path>
</symbol>
<symbol id="icon-comment-alt" viewBox="0 0 38 32">
<path d="M37.728 14.88q0 4.032-2.528 7.456t-6.88 5.44-9.472 1.984q-3.904 0-7.488-1.248l0.064 0.096-11.424 3.424q1.408-1.888 2.272-4.032t0.992-3.392l0.128-1.216q-3.392-3.84-3.392-8.512 0-4.032 2.528-7.456t6.88-5.408 9.44-1.984 9.472 1.984 6.88 5.408 2.528 7.456z"></path>
</symbol>
<symbol id="icon-indent-right" viewBox="0 0 32 32">
<path d="M32 3.776v6.816h-21.408v-6.816h21.408zM32 14.464v6.816h-21.408v-6.816h21.408zM32 25.184v6.816h-21.408v-6.816h21.408zM2.848 14.464l4.8 3.424-4.8 3.392v-6.816z"></path>
</symbol>
<symbol id="icon-down-micro" viewBox="0 0 15 32">
<path d="M7.52 19.808l-7.52-7.552h15.072z"></path>
</symbol>
<symbol id="icon-code" viewBox="0 0 32 32">
<path d="M12.16 6.848q0.512 0.448 0.512 1.024t-0.512 0.96l-7.872 7.168 7.872 7.232q0.512 0.384 0.512 0.96t-0.512 1.024q-0.96 0.96-1.92 0l-10.24-9.216 10.24-9.152q0.96-0.96 1.92 0zM21.824 6.848l10.176 9.152-10.176 9.216q-1.024 0.96-1.984 0-1.024-1.024 0-1.984l7.936-7.232-7.936-7.168q-1.024-0.96 0-1.984 0.96-0.96 1.984 0z"></path>
</symbol>
<symbol id="icon-lifebuoy" viewBox="0 0 28 32">
<path d="M14.176 1.824q5.824 0 9.984 4.16t4.16 10.016-4.16 9.984-9.984 4.192-10.016-4.192-4.16-9.984 4.16-10.016 10.016-4.16zM24.992 16q0-2.592-1.184-4.928l-3.2 3.2q0.224 0.832 0.224 1.728t-0.224 1.728l3.2 3.2q1.184-2.336 1.184-4.928zM3.328 16q0 2.592 1.184 4.928l3.264-3.264q-0.256-0.832-0.256-1.664 0-0.896 0.256-1.728l-3.264-3.2q-1.184 2.336-1.184 4.928zM8.448 12.64q0.864-1.472 2.368-2.368l-2.976-2.944-2.368 2.336zM10.816 21.728q-1.44-0.8-2.368-2.368l-2.976 2.944 2.368 2.368zM11.808 18.368q0.96 0.96 2.368 0.96t2.336-0.96q1.024-1.024 1.024-2.368t-0.992-2.336-2.368-0.992-2.368 0.992-0.96 2.336q0 1.408 0.96 2.368zM22.848 9.664l-2.368-2.336-2.944 2.944q1.472 0.896 2.336 2.368zM19.872 19.36q-0.896 1.568-2.336 2.368l2.944 2.944 2.368-2.368zM19.072 6.368q-2.304-1.216-4.896-1.216t-4.928 1.216l3.232 3.232q0.96-0.288 1.696-0.288t1.696 0.288zM9.248 25.632q2.304 1.216 4.928 1.216t4.896-1.216l-3.2-3.232q-0.992 0.288-1.696 0.288t-1.696-0.288z"></path>
</symbol>
<symbol id="icon-pin" viewBox="0 0 30 32">
<path d="M29.152 8.832q0 1.952-0.992 3.616t-2.688 2.624q0.064 0.608 0.064 0.864 0 4.416-3.136 7.584t-7.584 3.136q-3.296 0-5.952-1.792l-8.288 5.44 5.44-8.288q-1.92-2.816-1.92-6.080 0-4.416 3.136-7.552t7.584-3.168q0.192 0 0.576 0.064t0.416 0.064q0.96-1.664 2.592-2.656t3.616-0.992q2.944 0 5.056 2.112t2.080 5.024zM14.848 23.072q2.944 0 5.024-2.080t2.080-5.024q-0.832 0-1.824-0.256l-2.816 2.816q-1.024 1.024-2.496 1.024t-2.528-1.024-1.024-2.528 1.024-2.56l2.848-2.848q-0.288-0.992-0.288-1.76v-0.032h-0.032q-2.944 0-5.024 2.112t-2.112 5.056 2.112 5.024 5.056 2.080zM22.016 12.416q1.44 0 2.496-1.056t1.056-2.496-1.056-2.528-2.496-1.056-2.528 1.056-1.056 2.528 1.056 2.496 2.528 1.056z"></path>
</symbol>
<symbol id="icon-th-list" viewBox="0 0 26 32">
<path d="M5.12 6.080v5.152h-5.12v-5.152h5.12zM5.12 13.44v5.184h-5.12v-5.184h5.12zM5.12 20.8v5.12h-5.12v-5.12h5.12zM25.632 7.808v2.592h-17.056v-2.592h17.056zM25.632 15.168v2.592h-17.056v-2.592h17.056zM25.632 22.112v2.592h-17.056v-2.592h17.056z"></path>
</symbol>
<symbol id="icon-emo-devil" viewBox="0 0 32 32">
<path d="M3.552 0c-0.032 0-0.096 0-0.16 0-0.032 0-0.064 0-0.096 0.032v0c-0.032 0-0.064 0-0.096 0s-0.032 0-0.032 0c-0.256 0.064-0.544 0.224-0.768 0.384-0.064 0.032-0.096 0.064-0.16 0.128-0.032 0.032-0.064 0.064-0.128 0.096v0 0 0 0c-0.352 0.352-0.64 0.704-0.896 1.088-0.064 0.064-0.096 0.16-0.16 0.224-0.032 0.064-0.096 0.128-0.128 0.224v0 0 0c-0.224 0.384-0.384 0.768-0.544 1.184-0.032 0.096-0.032 0.192-0.064 0.256s-0.032 0.16-0.064 0.256v0c-0.544 2.080-0.16 4.352 0.576 6.016 0.16 0.32 0.32 0.608 0.48 0.896 0.16 0.256 0.352 0.512 0.512 0.736h0.032c0.16 0.192 0.384 0.288 0.64 0.32 0.224 0.032 0.48-0.064 0.672-0.224v0c0.032-0.032 0.096-0.064 0.128-0.128v0c0 0 0 0 0 0 0-0.032 0.032-0.032 0.032-0.032 0.128-0.16 0.224-0.32 0.352-0.48l0.096-0.096 0.064-0.096c0.128-0.16 0.256-0.288 0.384-0.448l0.096-0.064 0.064-0.096c0.704-0.768 1.504-1.408 2.368-1.984 0.16-0.128 0.352-0.224 0.512-0.32s0.32-0.192 0.512-0.288c0-0.032 0-0.032 0.032-0.032 0.224-0.128 0.384-0.32 0.448-0.544 0.064-0.256 0.032-0.512-0.096-0.736v0c-0.064-0.16-0.192-0.256-0.352-0.352v0 0c0 0-0.032-0.032-0.032-0.032-0.032 0-0.032 0-0.032 0-0.032-0.032-0.064-0.032-0.096-0.064v0 0 0 0c-0.224-0.064-0.416-0.16-0.64-0.256-0.032 0-0.064-0.032-0.096-0.064l-0.096-0.032c0 0-0.032-0.032-0.032-0.032v0c-0.16-0.096-0.352-0.192-0.512-0.32 0 0-0.032-0.032-0.064-0.064l-0.064-0.064c-0.032 0-0.032 0-0.032 0v0 0 0c-0.736-0.608-1.152-1.344-1.28-2.144 0-0.128-0.032-0.288-0.032-0.448s0-0.32 0.032-0.448v0-0.032c0.064-0.32 0.064-0.576 0-0.8 0-0.064-0.032-0.096-0.032-0.16 0-0.032-0.032-0.096-0.032-0.128h-0.032c-0.096-0.256-0.256-0.448-0.448-0.608-0.032-0.032-0.096-0.032-0.128-0.064s-0.096-0.064-0.128-0.064v0 0c-0.16-0.064-0.32-0.096-0.48-0.096zM28.416 0c-0.16 0-0.32 0.032-0.448 0.096v0 0c-0.064 0-0.096 0.032-0.128 0.064-0.064 0.032-0.096 0.032-0.128 0.064-0.192 0.16-0.352 0.352-0.48 0.608v0 0 0c0 0.032-0.032 0.096-0.032 0.128-0.032 0.064-0.032 0.096-0.032 0.16-0.064 0.224-0.064 0.48 0 0.8v0.032c0 0.128 0.032 0.288 0.032 0.448s-0.032 0.32-0.032 0.448c-0.128 0.8-0.576 1.536-1.28 2.144v0 0 0c-0.032 0-0.032 0-0.032 0l-0.064 0.064c-0.032 0.032-0.064 0.064-0.096 0.064-0.16 0.128-0.32 0.224-0.48 0.32v0c-0.032 0-0.032 0.032-0.032 0.032l-0.096 0.032c-0.032 0.032-0.096 0.064-0.128 0.064-0.192 0.096-0.384 0.192-0.608 0.256v0 0 0 0c-0.032 0.032-0.064 0.032-0.096 0.064 0 0-0.032 0-0.032 0-0.032 0-0.032 0.032-0.064 0.032v0 0c-0.128 0.096-0.256 0.192-0.32 0.352h-0.032c-0.096 0.224-0.128 0.48-0.064 0.736 0.064 0.224 0.224 0.416 0.448 0.544 0.032 0 0.032 0 0.032 0.032 0.192 0.096 0.352 0.192 0.512 0.288s0.32 0.192 0.512 0.32c0.864 0.576 1.632 1.216 2.368 1.984v0 0 0 0l0.064 0.096 0.096 0.064c0.128 0.16 0.256 0.288 0.384 0.448v0l0.128 0.192c0.128 0.16 0.256 0.32 0.384 0.48 0 0 0 0 0.032 0.032 0 0 0 0 0 0v0c0.032 0.064 0.064 0.096 0.128 0.128v0c0.192 0.16 0.448 0.256 0.672 0.224s0.48-0.128 0.64-0.32v0 0 0 0c0.192-0.224 0.352-0.48 0.544-0.736 0.16-0.288 0.32-0.576 0.448-0.896 0.736-1.664 1.152-3.936 0.608-6.016v0c-0.032-0.096-0.064-0.192-0.064-0.256-0.032-0.064-0.064-0.16-0.096-0.256-0.128-0.416-0.288-0.8-0.512-1.184v0 0 0c-0.064-0.096-0.096-0.16-0.128-0.224-0.064-0.064-0.096-0.16-0.16-0.224-0.256-0.384-0.544-0.736-0.896-1.088v0 0h-0.032c-0.032-0.032-0.064-0.064-0.128-0.096-0.032-0.064-0.064-0.096-0.128-0.128-0.256-0.16-0.512-0.32-0.768-0.384 0 0-0.032 0-0.032 0-0.032 0-0.064 0-0.096 0v0c-0.032-0.032-0.064-0.032-0.128-0.032-0.032 0-0.096 0-0.16 0zM7.104 12.416l-0.032 0.064c-1.472 2.016-1.472 5.248 0 7.264 0.704 0.96 1.696 1.568 2.784 1.568v0h0.032c2.624 0 3.904-3.008 3.904-5.184v0-0.032c0-0.192 0-0.352-0.032-0.512-0.064-0.032-0.128-0.064-0.224-0.128l-6.432-3.040zM24.896 12.416l-6.464 3.040c-0.064 0.064-0.128 0.096-0.192 0.128-0.032 0.16-0.032 0.32-0.032 0.512v0 0.032c0 2.176 1.28 5.184 3.904 5.184v0 0 0c1.12 0 2.080-0.608 2.784-1.568 1.472-2.016 1.504-5.248 0-7.264h0.032l-0.032-0.064zM25.568 24.384c-0.416 0-0.864 0.16-1.184 0.48v0c-0.032 0.032-0.032 0.064-0.064 0.096-0.32 0.32-0.64 0.64-0.992 0.928-0.32 0.288-0.704 0.576-1.088 0.832-1.984 1.312-4.32 1.984-6.72 1.856v0 0.032c-1.504-0.064-2.976-0.448-4.32-1.056-0.224-0.128-0.448-0.224-0.64-0.32-1.056-0.608-2.048-1.376-2.912-2.304-0.64-0.704-1.696-0.736-2.4-0.096s-0.736 1.696-0.096 2.4c1.088 1.184 2.368 2.208 3.808 2.976 0.288 0.16 0.544 0.288 0.832 0.416 1.728 0.8 3.616 1.28 5.568 1.344v0.032c3.136 0.128 6.176-0.736 8.736-2.432 0.512-0.32 0.992-0.704 1.44-1.088s0.896-0.8 1.28-1.248c0.64-0.672 0.64-1.728-0.032-2.368-0.32-0.352-0.768-0.512-1.216-0.48z"></path>
</symbol>
<symbol id="icon-emo-displeased" viewBox="0 0 26 32">
<path d="M5.472 1.6c-1.952 0-3.52 2.080-3.52 4.608 0 2.56 1.568 4.64 3.52 4.64s3.488-2.080 3.488-4.64c0-2.528-1.568-4.608-3.488-4.608zM20.704 1.6c-1.952 0-3.52 2.080-3.52 4.608 0 2.56 1.568 4.64 3.52 4.64s3.52-2.080 3.52-4.64c0-2.528-1.568-4.608-3.52-4.608zM1.696 15.904c-0.576 0-1.152 0.32-1.472 0.864-0.48 0.832-0.192 1.888 0.64 2.368l22.688 12.128c0.832 0.48 1.888 0.192 2.368-0.64s0.192-1.888-0.64-2.368l-22.688-12.128c-0.288-0.16-0.576-0.224-0.896-0.224z"></path>
</symbol>
<symbol id="icon-upload" viewBox="0 0 30 32">
<path d="M22.848 26.272q0-0.448-0.32-0.8t-0.8-0.32-0.8 0.32-0.352 0.8 0.352 0.8 0.8 0.352 0.8-0.352 0.32-0.8zM27.424 26.272q0-0.448-0.32-0.8t-0.832-0.32-0.8 0.32-0.32 0.8 0.32 0.8 0.8 0.352 0.832-0.352 0.32-0.8zM29.728 22.272v5.728q0 0.704-0.512 1.216t-1.216 0.512h-26.272q-0.736 0-1.216-0.512t-0.512-1.216v-5.728q0-0.704 0.512-1.216t1.216-0.48h7.616q0.384 0.992 1.248 1.632t1.984 0.64h4.576q1.088 0 1.952-0.64t1.28-1.632h7.616q0.704 0 1.216 0.48t0.512 1.216zM23.904 10.72q-0.288 0.704-1.056 0.704h-4.576v8q0 0.48-0.32 0.8t-0.8 0.352h-4.576q-0.48 0-0.8-0.352t-0.352-0.8v-8h-4.576q-0.736 0-1.056-0.704-0.288-0.704 0.256-1.248l8-8q0.32-0.32 0.8-0.32t0.8 0.32l8 8q0.576 0.544 0.256 1.248z"></path>
</symbol>
<symbol id="icon-crown-minus" viewBox="0 0 27 32">
<path d="M13.408 0.896c-1.248 0-2.272 1.024-2.272 2.304s1.024 2.304 2.272 2.304c1.248 0 2.368-1.024 2.368-2.304s-1.12-2.304-2.368-2.304zM11.872 8c-1.28 3.808-3.232 4.832-3.232 4.832s-1.664-4.64-3.488-7.392c-0.736 1.664-1.504 2.752-3.072 3.2-0.032 1.408 1.632 6.656 1.76 9.28h19.232c0.064-2.528 1.76-8.192 1.76-9.216-1.216-0.512-2.72-1.632-3.072-3.264-2.016 2.752-3.488 7.392-3.488 7.392s-1.952-1.024-3.232-4.832c-0.864 0.416-2.464 0.416-3.168 0zM2.368 0.896c-1.28 0-2.368 1.024-2.368 2.304s1.088 2.304 2.368 2.304c1.248 0 2.24-1.024 2.24-2.304s-0.992-2.304-2.24-2.304zM3.872 20.192v3.808h7.36v-3.52h11.84v-0.288zM24.48 0.896c-1.28 0-2.304 1.024-2.304 2.304s1.024 2.304 2.304 2.304c1.28 0 2.304-1.024 2.304-2.304s-1.024-2.304-2.304-2.304zM13.536 27.008c0-1.024 0-3.392 0-4.576 3.936 0 4.864 0 13.76 0 0 1.472 0 3.36 0 4.576-3.616 0-10.656 0-13.76 0z"></path>
</symbol>
<symbol id="icon-instagram-circled" viewBox="0 0 30 32">
<path d="M0 16q0-3.040 1.184-5.824t3.2-4.768 4.8-3.2 5.824-1.184 5.824 1.184 4.768 3.2 3.2 4.768 1.184 5.824-1.184 5.824-3.2 4.8-4.768 3.2-5.824 1.184-5.824-1.184-4.8-3.2-3.2-4.8-1.184-5.824zM8.608 20.16q0 0.992 0.704 1.696t1.696 0.704h7.968q1.024 0 1.696-0.704t0.704-1.696v-3.936h-2.944q-0.288 1.152-1.248 1.888t-2.176 0.736-2.176-0.736-1.312-1.888h-2.912v3.936zM8.608 14.24h2.912q0.352-1.152 1.312-1.856t2.176-0.736 2.176 0.736 1.248 1.856h2.944v-2.080q0-0.992-0.704-1.696t-1.696-0.672h-7.968q-1.024 0-1.696 0.672t-0.704 1.696v2.080zM12.992 15.232q0 0.832 0.576 1.408t1.44 0.576 1.408-0.576 0.576-1.408-0.576-1.408-1.408-0.608-1.44 0.608-0.576 1.408z"></path>
</symbol>
<symbol id="icon-filter" viewBox="0 0 25 32">
<path d="M25.056 5.28q0.288 0.704-0.256 1.248l-8.8 8.8v13.248q0 0.736-0.704 1.056-0.224 0.096-0.448 0.096-0.48 0-0.8-0.352l-4.576-4.576q-0.32-0.352-0.32-0.8v-8.672l-8.8-8.8q-0.576-0.544-0.256-1.248 0.288-0.704 1.056-0.704h22.848q0.736 0 1.056 0.704z"></path>
</symbol>
<symbol id="icon-repair" viewBox="0 0 32 32">
<path d="M21.664 9.696c-0.353 0-0.639 0.287-0.639 0.64s0.287 0.64 0.64 0.64 0.64-0.287 0.64-0.64c0-0.011-0-0.022-0.001-0.034l0 0.002c-0.018-0.339-0.297-0.608-0.639-0.608-0 0-0.001 0-0.001 0h0zM10.336 21.056c-0.009-0-0.020-0.001-0.031-0.001-0.353 0-0.64 0.287-0.64 0.64s0.287 0.64 0.64 0.64c0.353 0 0.64-0.287 0.64-0.64 0-0.011-0-0.022-0.001-0.033l0 0.002c-0.017-0.329-0.279-0.591-0.606-0.608l-0.002-0zM31.232 3.84c-0.049-0.013-0.105-0.021-0.162-0.021-0.173 0-0.331 0.069-0.446 0.181l0-0-2.56 2.624h-1.248l-1.376-1.408v-1.28l2.56-2.592c0.1-0.112 0.161-0.261 0.161-0.424 0-0.273-0.171-0.507-0.412-0.598l-0.004-0.001c-0.587-0.201-1.263-0.316-1.967-0.316-3.464 0-6.272 2.808-6.272 6.272 0 0.567 0.075 1.117 0.217 1.64l-0.010-0.044-4.608 4.608-7.68-7.712v-1.504c-0.008-0.214-0.119-0.4-0.286-0.511l-0.002-0.001-4.416-2.656c-0.092-0.054-0.203-0.086-0.321-0.086-0.174 0-0.332 0.070-0.447 0.182l-1.76 1.76c-0.113 0.115-0.182 0.273-0.182 0.447 0 0.118 0.032 0.229 0.088 0.324l-0.002-0.003 2.656 4.416c0.112 0.169 0.298 0.28 0.511 0.288l0.001 0h1.536l7.648 7.712-4.576 4.576c-0.493-0.14-1.060-0.221-1.646-0.221-3.446 0-6.24 2.794-6.24 6.24 0 0.721 0.122 1.413 0.347 2.057l-0.013-0.044c0.087 0.257 0.326 0.439 0.608 0.439 0.175 0 0.333-0.070 0.448-0.183l-0 0 2.592-2.624h1.248l1.408 1.408v1.28l-2.624 2.56c-0.113 0.115-0.183 0.274-0.183 0.448 0 0.282 0.182 0.521 0.435 0.606l0.005 0.001c0.597 0.209 1.286 0.33 2.002 0.33 2.081 0 3.923-1.018 5.057-2.584l0.013-0.018c0.739-1.006 1.183-2.269 1.183-3.635 0-0.585-0.081-1.152-0.234-1.688l0.011 0.044 3.68-3.68 0.864 0.896-0.384 0.416c-0.205 0.109-0.343 0.322-0.343 0.567 0 0.353 0.287 0.64 0.64 0.64 0.245 0 0.457-0.137 0.565-0.339l0.002-0.003 0.352-0.352 7.936 8.608c0.678 0.682 1.618 1.105 2.656 1.105 2.068 0 3.745-1.677 3.745-3.745 0-1.030-0.416-1.963-1.089-2.64l-0.032-0.032-8.608-7.904 0.352-0.352c0.179-0.116 0.296-0.314 0.296-0.539 0-0.353-0.287-0.64-0.64-0.64-0.234 0-0.438 0.125-0.55 0.313l-0.002 0.003-0.384 0.384-0.896-0.864 3.68-3.68c0.493 0.14 1.060 0.221 1.646 0.221 3.446 0 6.24-2.794 6.24-6.24 0-0.721-0.122-1.413-0.347-2.057l0.013 0.044c-0.070-0.205-0.236-0.361-0.444-0.415l-0.004-0.001zM5.504 6.368c-0.111-0.118-0.269-0.192-0.443-0.192-0.002 0-0.003 0-0.005 0h-1.408l-2.24-3.68 1.088-1.088 3.68 2.208v1.44c0.011 0.164 0.083 0.309 0.192 0.416l0 0 7.84 7.872-0.864 0.896zM21.376 18.56l8.64 7.936c0.375 0.434 0.604 1.004 0.604 1.628 0 1.378-1.117 2.496-2.496 2.496-0.624 0-1.194-0.229-1.631-0.607l0.003 0.003-7.936-8.608zM20.48 17.696l-2.784 2.784-0.832-0.928 2.688-2.688zM25.76 11.232c-0.006 0-0.014 0-0.022 0-0.565 0-1.107-0.094-1.613-0.266l0.035 0.010c-0.056-0.018-0.12-0.028-0.187-0.028-0.177 0-0.337 0.072-0.453 0.188v0l-12.384 12.384c-0.102 0.113-0.164 0.263-0.164 0.428 0 0.076 0.013 0.149 0.038 0.216l-0.001-0.004c0.167 0.477 0.263 1.027 0.263 1.6 0 2.757-2.235 4.992-4.992 4.992-0.014 0-0.028-0-0.042-0h0.002c-0.193-0.001-0.382-0.013-0.568-0.034l0.024 0.002 1.984-1.984c0.109-0.107 0.181-0.252 0.192-0.414l0-0.002v-1.792c-0.003-0.176-0.076-0.334-0.192-0.448l-1.76-1.76c-0.114-0.116-0.272-0.189-0.448-0.192h-1.792c-0.164 0.011-0.309 0.083-0.416 0.192l-1.984 1.984c-0.019-0.162-0.031-0.351-0.032-0.543v-0.001c0-0.002 0-0.005 0-0.007 0-2.757 2.235-4.992 4.992-4.992 0.573 0 1.123 0.096 1.635 0.274l-0.035-0.011c0.056 0.018 0.12 0.028 0.187 0.028 0.177 0 0.337-0.072 0.453-0.188v0l12.384-12.384c0.116-0.116 0.188-0.276 0.188-0.453 0-0.067-0.010-0.131-0.029-0.191l0.001 0.005c-0.167-0.477-0.263-1.027-0.263-1.6 0-2.757 2.235-4.992 4.992-4.992 0.003 0 0.005 0 0.008 0h-0c0.193 0.001 0.382 0.013 0.568 0.034l-0.024-0.002-1.92 1.984c-0.109 0.107-0.181 0.252-0.192 0.414l-0 0.002v1.792c0.002 0.16 0.062 0.306 0.161 0.417l-0.001-0.001 1.728 1.792c0.114 0.116 0.272 0.189 0.448 0.192h1.792c0.164-0.011 0.309-0.083 0.416-0.192l1.984-1.984c0.019 0.163 0.030 0.352 0.030 0.544 0 2.756-2.234 4.991-4.99 4.992h-0zM19.456 11.648l-7.808 7.808c-0.156 0.118-0.256 0.303-0.256 0.512 0 0.353 0.287 0.64 0.64 0.64 0.209 0 0.394-0.1 0.511-0.254l0.001-0.002 7.808-7.808c0.080-0.106 0.128-0.239 0.128-0.384 0-0.353-0.287-0.64-0.64-0.64-0.145 0-0.278 0.048-0.386 0.129l0.002-0.001zM27.36 28.256c0.118 0.156 0.303 0.256 0.512 0.256 0.353 0 0.64-0.287 0.64-0.64 0-0.209-0.1-0.394-0.254-0.511l-0.002-0.001-5.632-5.6c-0.097-0.063-0.217-0.101-0.344-0.101-0.353 0-0.64 0.287-0.64 0.64 0 0.12 0.033 0.232 0.090 0.328l-0.002-0.003zM27.36 28.256"></path>
</symbol>
<symbol id="icon-tow-truck" viewBox="0 0 62 32">
<path d="M62.176 24.8l-4.608-4.832c-0.16-0.16-0.384-0.256-0.608-0.256h-2.016v-1.12c0-0.512-0.416-0.96-0.96-0.96s-0.992 0.448-0.992 0.96v0 1.12h-12.928v-3.168l13.632-13.632c0.64-0.672 0.64-1.728 0-2.4-0.672-0.672-1.76-0.672-2.432 0l-13.792 13.792h-2.208v5.408h-1.856v-14.848c0-0.48-0.352-0.832-0.832-0.832h-1.088v-0.576c0-0.544-0.416-0.96-0.96-0.96s-0.992 0.416-0.992 0.96v0.576h-7.584c-0.256 0-0.48 0.096-0.64 0.288l-8.16 9.184h-4.48c-0.064 0-0.128 0-0.224 0-2.944-0.16-5.6 1.888-6.208 4.768l-0.256 0.832h-0.928c-0.576 0-1.056 0.48-1.056 1.056v5.056c0 0.416 0.256 0.832 0.672 0.96 0.128 0.064 0.224 0.064 0.352 0.064h2.72c0.224 3.392 3.136 5.952 6.528 5.76 3.072-0.192 5.536-2.656 5.728-5.76h28.832c0.224 3.392 3.136 5.952 6.528 5.76 3.104-0.192 5.536-2.656 5.76-5.76h4.48c0.48 0 0.832-0.384 0.832-0.832-0.032-0.224-0.096-0.448-0.256-0.608zM9.856 28.896c-1.696 0-3.072-1.408-3.072-3.104s1.376-3.104 3.072-3.104c1.696 0 3.104 1.408 3.104 3.104v0c0 1.728-1.376 3.104-3.104 3.104zM29.6 12.928h-10.208l4.992-5.824h5.216v5.824zM50.944 28.896c-1.696 0-3.072-1.408-3.072-3.104s1.376-3.104 3.072-3.104c1.696 0 3.104 1.408 3.104 3.104v0c0 1.728-1.408 3.104-3.104 3.104z"></path>
</symbol>
</defs>
</svg>
